<?xml version="1.0" encoding="UTF-8" standalone="no"?>
<svg viewBox="0 0 200 200" xmlns="http://www.w3.org/2000/svg" fill="none" stroke="black" stroke-width="2">
    <!-- Otak berbentuk kurva -->
    <path d="M100,30 Q130,20 140,50 Q150,80 120,90 Q150,100 140,130 Q130,160 100,150 Q70,160 60,130 Q50,100 80,90 Q50,80 60,50 Q70,20 100,30" fill="#AADDEE" stroke="#005577" stroke-width="3"/>
    
    <!-- Koneksi antar node -->
    <line x1="100" y1="30" x2="50" y2="10" stroke="#005577" stroke-width="2"/>
    <line x1="100" y1="30" x2="150" y2="10" stroke="#005577" stroke-width="2"/>
    <line x1="140" y1="50" x2="180" y2="40" stroke="#005577" stroke-width="2"/>
    <line x1="60" y1="50" x2="20" y2="40" stroke="#005577" stroke-width="2"/>
    <line x1="120" y1="90" x2="160" y2="100" stroke="#005577" stroke-width="2"/>
    <line x1="80" y1="90" x2="40" y2="100" stroke="#005577" stroke-width="2"/>
    <line x1="140" y1="130" x2="180" y2="160" stroke="#005577" stroke-width="2"/>
    <line x1="60" y1="130" x2="20" y2="160" stroke="#005577" stroke-width="2"/>
    
    <!-- Node pada koneksi -->
    <circle cx="50" cy="10" r="5" fill="#005577"/>
    <circle cx="150" cy="10" r="5" fill="#005577"/>
    <circle cx="180" cy="40" r="5" fill="#005577"/>
    <circle cx="20" cy="40" r="5" fill="#005577"/>
    <circle cx="160" cy="100" r="5" fill="#005577"/>
    <circle cx="40" cy="100" r="5" fill="#005577"/>
    <circle cx="180" cy="160" r="5" fill="#005577"/>
    <circle cx="20" cy="160" r="5" fill="#005577"/>
</svg>